<?xml version="1.0" encoding="UTF-8" standalone="no"?>
<!DOCTYPE svg PUBLIC "-//W3C//DTD SVG 1.1//EN"
 "http://www.w3.org/Graphics/SVG/1.1/DTD/svg11.dtd">
<!-- Generated by graphviz version 2.50.0 (0)
 -->
<!-- Pages: 1 -->
<svg width="727pt" height="149pt"
 viewBox="0.00 0.00 727.42 149.00" xmlns="http://www.w3.org/2000/svg" xmlns:xlink="http://www.w3.org/1999/xlink">
<g id="graph0" class="graph" transform="scale(1 1) rotate(0) translate(4 145)">
<polygon fill="white" stroke="transparent" points="-4,4 -4,-145 723.42,-145 723.42,4 -4,4"/>
<!-- 4395791600 -->
<g id="node1" class="node">
<title>4395791600</title>
<polygon fill="white" stroke="black" points="719.42,-103 651.42,-103 651.42,-73 719.42,-73 719.42,-103"/>
<text text-anchor="middle" x="685.42" y="-91" font-family="Times,serif" font-size="10.00">data: 2.5000</text>
<text text-anchor="middle" x="685.42" y="-80" font-family="Times,serif" font-size="10.00">grad: 0.0000</text>
</g>
<!-- 4395791600* -->
<g id="node2" class="node">
<title>4395791600*</title>
<ellipse fill="none" stroke="black" cx="606.87" cy="-88" rx="15.61" ry="13.37"/>
<text text-anchor="middle" x="606.87" y="-85.5" font-family="Times,serif" font-size="10.00">*</text>
</g>
<!-- 4395791600*&#45;&gt;4395791600 -->
<g id="edge1" class="edge">
<title>4395791600*&#45;&gt;4395791600</title>
<path fill="none" stroke="black" d="M622.63,-88C627.99,-88 634.35,-88 640.93,-88"/>
<polygon fill="black" stroke="black" points="641.32,-91.5 651.32,-88 641.32,-84.5 641.32,-91.5"/>
</g>
<!-- 4395790592 -->
<g id="node3" class="node">
<title>4395790592</title>
<polygon fill="white" stroke="black" points="562.31,-122 494.31,-122 494.31,-92 562.31,-92 562.31,-122"/>
<text text-anchor="middle" x="528.31" y="-110" font-family="Times,serif" font-size="10.00">data: 0.5000</text>
<text text-anchor="middle" x="528.31" y="-99" font-family="Times,serif" font-size="10.00">grad: 0.0000</text>
</g>
<!-- 4395790592&#45;&gt;4395791600* -->
<g id="edge7" class="edge">
<title>4395790592&#45;&gt;4395791600*</title>
<path fill="none" stroke="black" d="M562.66,-98.72C569.01,-97.15 575.54,-95.53 581.54,-94.04"/>
<polygon fill="black" stroke="black" points="582.75,-97.34 591.61,-91.54 581.07,-90.55 582.75,-97.34"/>
</g>
<!-- 4395793376 -->
<g id="node4" class="node">
<title>4395793376</title>
<polygon fill="white" stroke="black" points="562.31,-85 494.31,-85 494.31,-55 562.31,-55 562.31,-85"/>
<text text-anchor="middle" x="528.31" y="-73" font-family="Times,serif" font-size="10.00">data: 5.0000</text>
<text text-anchor="middle" x="528.31" y="-62" font-family="Times,serif" font-size="10.00">grad: 0.0000</text>
</g>
<!-- 4395793376&#45;&gt;4395791600* -->
<g id="edge8" class="edge">
<title>4395793376&#45;&gt;4395791600*</title>
<path fill="none" stroke="black" d="M562.66,-77.84C569.01,-79.33 575.54,-80.87 581.54,-82.28"/>
<polygon fill="black" stroke="black" points="581.08,-85.77 591.61,-84.65 582.68,-78.95 581.08,-85.77"/>
</g>
<!-- 4395793376+ -->
<g id="node5" class="node">
<title>4395793376+</title>
<ellipse fill="none" stroke="black" cx="449.05" cy="-70" rx="16.03" ry="13.37"/>
<text text-anchor="middle" x="449.05" y="-67.5" font-family="Times,serif" font-size="10.00">+</text>
</g>
<!-- 4395793376+&#45;&gt;4395793376 -->
<g id="edge2" class="edge">
<title>4395793376+&#45;&gt;4395793376</title>
<path fill="none" stroke="black" d="M465.31,-70C470.74,-70 477.15,-70 483.75,-70"/>
<polygon fill="black" stroke="black" points="484.18,-73.5 494.18,-70 484.18,-66.5 484.18,-73.5"/>
</g>
<!-- 4395792896 -->
<g id="node6" class="node">
<title>4395792896</title>
<polygon fill="white" stroke="black" points="403.78,-104 335.78,-104 335.78,-74 403.78,-74 403.78,-104"/>
<text text-anchor="middle" x="369.78" y="-92" font-family="Times,serif" font-size="10.00">data: 4.0000</text>
<text text-anchor="middle" x="369.78" y="-81" font-family="Times,serif" font-size="10.00">grad: 0.0000</text>
</g>
<!-- 4395792896&#45;&gt;4395793376+ -->
<g id="edge9" class="edge">
<title>4395792896&#45;&gt;4395793376+</title>
<path fill="none" stroke="black" d="M404,-80.83C410.49,-79.23 417.2,-77.58 423.36,-76.07"/>
<polygon fill="black" stroke="black" points="424.2,-79.47 433.08,-73.68 422.53,-72.67 424.2,-79.47"/>
</g>
<!-- 4395792896**2 -->
<g id="node7" class="node">
<title>4395792896**2</title>
<ellipse fill="none" stroke="black" cx="284.15" cy="-89" rx="22.76" ry="13.37"/>
<text text-anchor="middle" x="284.15" y="-86.5" font-family="Times,serif" font-size="10.00">**2</text>
</g>
<!-- 4395792896**2&#45;&gt;4395792896 -->
<g id="edge3" class="edge">
<title>4395792896**2&#45;&gt;4395792896</title>
<path fill="none" stroke="black" d="M307.13,-89C312.84,-89 319.2,-89 325.61,-89"/>
<polygon fill="black" stroke="black" points="325.62,-92.5 335.62,-89 325.62,-85.5 325.62,-92.5"/>
</g>
<!-- 4395792752 -->
<g id="node8" class="node">
<title>4395792752</title>
<polygon fill="white" stroke="black" points="232.53,-104 161.53,-104 161.53,-74 232.53,-74 232.53,-104"/>
<text text-anchor="middle" x="197.03" y="-92" font-family="Times,serif" font-size="10.00">data: &#45;2.0000</text>
<text text-anchor="middle" x="197.03" y="-81" font-family="Times,serif" font-size="10.00">grad: 0.0000</text>
</g>
<!-- 4395792752&#45;&gt;4395792896**2 -->
<g id="edge10" class="edge">
<title>4395792752&#45;&gt;4395792896**2</title>
<path fill="none" stroke="black" d="M232.65,-89C238.75,-89 245.08,-89 251.1,-89"/>
<polygon fill="black" stroke="black" points="251.51,-92.5 261.51,-89 251.51,-85.5 251.51,-92.5"/>
</g>
<!-- 4395792752+ -->
<g id="node9" class="node">
<title>4395792752+</title>
<ellipse fill="none" stroke="black" cx="116.26" cy="-89" rx="16.03" ry="13.37"/>
<text text-anchor="middle" x="116.26" y="-86.5" font-family="Times,serif" font-size="10.00">+</text>
</g>
<!-- 4395792752+&#45;&gt;4395792752 -->
<g id="edge4" class="edge">
<title>4395792752+&#45;&gt;4395792752</title>
<path fill="none" stroke="black" d="M132.82,-89C138.18,-89 144.47,-89 150.98,-89"/>
<polygon fill="black" stroke="black" points="151.27,-92.5 161.27,-89 151.27,-85.5 151.27,-92.5"/>
</g>
<!-- 4395791504 -->
<g id="node10" class="node">
<title>4395791504</title>
<polygon fill="white" stroke="black" points="69.5,-141 1.5,-141 1.5,-111 69.5,-111 69.5,-141"/>
<text text-anchor="middle" x="35.5" y="-129" font-family="Times,serif" font-size="10.00">data: 3.0000</text>
<text text-anchor="middle" x="35.5" y="-118" font-family="Times,serif" font-size="10.00">grad: 0.0000</text>
</g>
<!-- 4395791504&#45;&gt;4395792752+ -->
<g id="edge11" class="edge">
<title>4395791504&#45;&gt;4395792752+</title>
<path fill="none" stroke="black" d="M68.54,-110.95C76.59,-107.17 85.07,-103.18 92.56,-99.66"/>
<polygon fill="black" stroke="black" points="94.16,-102.78 101.72,-95.36 91.18,-96.44 94.16,-102.78"/>
</g>
<!-- 4395794096 -->
<g id="node11" class="node">
<title>4395794096</title>
<polygon fill="white" stroke="black" points="71,-104 0,-104 0,-74 71,-74 71,-104"/>
<text text-anchor="middle" x="35.5" y="-92" font-family="Times,serif" font-size="10.00">data: &#45;5.0000</text>
<text text-anchor="middle" x="35.5" y="-81" font-family="Times,serif" font-size="10.00">grad: 0.0000</text>
</g>
<!-- 4395794096&#45;&gt;4395792752+ -->
<g id="edge12" class="edge">
<title>4395794096&#45;&gt;4395792752+</title>
<path fill="none" stroke="black" d="M71.28,-89C77.56,-89 84,-89 89.95,-89"/>
<polygon fill="black" stroke="black" points="89.99,-92.5 99.99,-89 89.99,-85.5 89.99,-92.5"/>
</g>
<!-- 4395792320 -->
<g id="node12" class="node">
<title>4395792320</title>
<polygon fill="white" stroke="black" points="403.78,-67 335.78,-67 335.78,-37 403.78,-37 403.78,-67"/>
<text text-anchor="middle" x="369.78" y="-55" font-family="Times,serif" font-size="10.00">data: 1.0000</text>
<text text-anchor="middle" x="369.78" y="-44" font-family="Times,serif" font-size="10.00">grad: 0.0000</text>
</g>
<!-- 4395792320&#45;&gt;4395793376+ -->
<g id="edge13" class="edge">
<title>4395792320&#45;&gt;4395793376+</title>
<path fill="none" stroke="black" d="M404,-59.74C410.34,-61.22 416.87,-62.74 422.91,-64.14"/>
<polygon fill="black" stroke="black" points="422.55,-67.65 433.08,-66.51 424.13,-60.84 422.55,-67.65"/>
</g>
<!-- 4395792320**2 -->
<g id="node13" class="node">
<title>4395792320**2</title>
<ellipse fill="none" stroke="black" cx="284.15" cy="-52" rx="22.76" ry="13.37"/>
<text text-anchor="middle" x="284.15" y="-49.5" font-family="Times,serif" font-size="10.00">**2</text>
</g>
<!-- 4395792320**2&#45;&gt;4395792320 -->
<g id="edge5" class="edge">
<title>4395792320**2&#45;&gt;4395792320</title>
<path fill="none" stroke="black" d="M307.13,-52C312.84,-52 319.2,-52 325.61,-52"/>
<polygon fill="black" stroke="black" points="325.62,-55.5 335.62,-52 325.62,-48.5 325.62,-55.5"/>
</g>
<!-- 4395794000 -->
<g id="node14" class="node">
<title>4395794000</title>
<polygon fill="white" stroke="black" points="231.03,-67 163.03,-67 163.03,-37 231.03,-37 231.03,-67"/>
<text text-anchor="middle" x="197.03" y="-55" font-family="Times,serif" font-size="10.00">data: 1.0000</text>
<text text-anchor="middle" x="197.03" y="-44" font-family="Times,serif" font-size="10.00">grad: 0.0000</text>
</g>
<!-- 4395794000&#45;&gt;4395792320**2 -->
<g id="edge14" class="edge">
<title>4395794000&#45;&gt;4395792320**2</title>
<path fill="none" stroke="black" d="M231.18,-52C237.86,-52 244.87,-52 251.49,-52"/>
<polygon fill="black" stroke="black" points="251.49,-55.5 261.49,-52 251.49,-48.5 251.49,-55.5"/>
</g>
<!-- 4395794000+ -->
<g id="node15" class="node">
<title>4395794000+</title>
<ellipse fill="none" stroke="black" cx="116.26" cy="-52" rx="16.03" ry="13.37"/>
<text text-anchor="middle" x="116.26" y="-49.5" font-family="Times,serif" font-size="10.00">+</text>
</g>
<!-- 4395794000+&#45;&gt;4395794000 -->
<g id="edge6" class="edge">
<title>4395794000+&#45;&gt;4395794000</title>
<path fill="none" stroke="black" d="M132.82,-52C138.61,-52 145.49,-52 152.55,-52"/>
<polygon fill="black" stroke="black" points="152.91,-55.5 162.91,-52 152.91,-48.5 152.91,-55.5"/>
</g>
<!-- 4395793808 -->
<g id="node16" class="node">
<title>4395793808</title>
<polygon fill="white" stroke="black" points="69.5,-67 1.5,-67 1.5,-37 69.5,-37 69.5,-67"/>
<text text-anchor="middle" x="35.5" y="-55" font-family="Times,serif" font-size="10.00">data: 2.0000</text>
<text text-anchor="middle" x="35.5" y="-44" font-family="Times,serif" font-size="10.00">grad: 0.0000</text>
</g>
<!-- 4395793808&#45;&gt;4395794000+ -->
<g id="edge15" class="edge">
<title>4395793808&#45;&gt;4395794000+</title>
<path fill="none" stroke="black" d="M69.9,-52C76.56,-52 83.46,-52 89.8,-52"/>
<polygon fill="black" stroke="black" points="89.81,-55.5 99.81,-52 89.81,-48.5 89.81,-55.5"/>
</g>
<!-- 4395791984 -->
<g id="node17" class="node">
<title>4395791984</title>
<polygon fill="white" stroke="black" points="71,-30 0,-30 0,0 71,0 71,-30"/>
<text text-anchor="middle" x="35.5" y="-18" font-family="Times,serif" font-size="10.00">data: &#45;1.0000</text>
<text text-anchor="middle" x="35.5" y="-7" font-family="Times,serif" font-size="10.00">grad: 0.0000</text>
</g>
<!-- 4395791984&#45;&gt;4395794000+ -->
<g id="edge16" class="edge">
<title>4395791984&#45;&gt;4395794000+</title>
<path fill="none" stroke="black" d="M68.54,-30.05C76.59,-33.83 85.07,-37.82 92.56,-41.34"/>
<polygon fill="black" stroke="black" points="91.18,-44.56 101.72,-45.64 94.16,-38.22 91.18,-44.56"/>
</g>
</g>
</svg>
